<mxfile host="app.diagrams.net" modified="2023-05-25T10:39:31.082Z" agent="Mozilla/5.0 (Windows NT 10.0; Win64; x64) AppleWebKit/537.36 (KHTML, like Gecko) Chrome/113.0.0.0 Safari/537.36" etag="6uDIcw-sSEWzkvwUE7zX" version="21.3.2" type="github">
  <diagram name="Страница 1" id="rEwbCsOrJg5nvZE1eSxs">
    <mxGraphModel dx="990" dy="1017" grid="0" gridSize="10" guides="1" tooltips="1" connect="1" arrows="1" fold="1" page="1" pageScale="1" pageWidth="4681" pageHeight="3300" math="0" shadow="0">
      <root>
        <mxCell id="0" />
        <mxCell id="1" parent="0" />
        <mxCell id="nIQTlwYZVcQ3aSd5fRFl-117" value="" style="ellipse;whiteSpace=wrap;html=1;fontFamily=Helvetica;fontSize=11;fillColor=#e1d5e7;strokeColor=#9673a6;rotation=75;" parent="1" vertex="1">
          <mxGeometry x="706.94" y="444" width="93" height="31.48" as="geometry" />
        </mxCell>
        <mxCell id="nIQTlwYZVcQ3aSd5fRFl-116" value="" style="ellipse;whiteSpace=wrap;html=1;fontFamily=Helvetica;fontSize=11;fillColor=#d5e8d4;strokeColor=#82b366;" parent="1" vertex="1">
          <mxGeometry x="1109" y="412.5" width="176" height="204" as="geometry" />
        </mxCell>
        <mxCell id="nIQTlwYZVcQ3aSd5fRFl-115" value="" style="ellipse;whiteSpace=wrap;html=1;fontFamily=Helvetica;fontSize=11;fillColor=#f8cecc;strokeColor=#b85450;" parent="1" vertex="1">
          <mxGeometry x="1069.25" y="621.88" width="175.75" height="228.12" as="geometry" />
        </mxCell>
        <mxCell id="nIQTlwYZVcQ3aSd5fRFl-114" value="" style="ellipse;whiteSpace=wrap;html=1;fontFamily=Helvetica;fontSize=11;fillColor=#fff2cc;strokeColor=#d6b656;" parent="1" vertex="1">
          <mxGeometry x="878" y="609" width="163" height="251.5" as="geometry" />
        </mxCell>
        <mxCell id="nIQTlwYZVcQ3aSd5fRFl-1" value="" style="sketch=0;aspect=fixed;pointerEvents=1;shadow=0;dashed=0;html=1;strokeColor=none;labelPosition=center;verticalLabelPosition=bottom;verticalAlign=top;align=center;fillColor=#00188D;shape=mxgraph.mscae.enterprise.windows_server;movable=0;resizable=0;rotatable=0;deletable=0;editable=0;locked=1;connectable=0;" parent="1" vertex="1">
          <mxGeometry x="557" y="433.56" width="56.94" height="73" as="geometry" />
        </mxCell>
        <mxCell id="nIQTlwYZVcQ3aSd5fRFl-2" value="" style="sketch=0;aspect=fixed;pointerEvents=1;shadow=0;dashed=0;html=1;strokeColor=none;labelPosition=center;verticalLabelPosition=bottom;verticalAlign=top;align=center;fillColor=#00188D;shape=mxgraph.mscae.enterprise.server_generic;movable=0;resizable=0;rotatable=0;deletable=0;editable=0;locked=1;connectable=0;" parent="1" vertex="1">
          <mxGeometry x="773" y="493" width="38.4" height="80" as="geometry" />
        </mxCell>
        <mxCell id="nIQTlwYZVcQ3aSd5fRFl-4" value="" style="shape=image;verticalLabelPosition=bottom;labelBackgroundColor=default;verticalAlign=top;aspect=fixed;imageAspect=0;image=https://www.debian.org/Pics/debian-logo-1024x576.png;movable=0;resizable=0;rotatable=0;deletable=0;editable=0;locked=1;connectable=0;" parent="1" vertex="1">
          <mxGeometry x="798" y="536.44" width="65" height="36.56" as="geometry" />
        </mxCell>
        <mxCell id="nIQTlwYZVcQ3aSd5fRFl-5" value="" style="sketch=0;aspect=fixed;pointerEvents=1;shadow=0;dashed=0;html=1;strokeColor=none;labelPosition=center;verticalLabelPosition=bottom;verticalAlign=top;align=center;fillColor=#00188D;shape=mxgraph.mscae.enterprise.windows_server;movable=0;resizable=0;rotatable=0;deletable=0;editable=0;locked=1;connectable=0;" parent="1" vertex="1">
          <mxGeometry x="660" y="493" width="56.94" height="73" as="geometry" />
        </mxCell>
        <mxCell id="nIQTlwYZVcQ3aSd5fRFl-6" value="Провайдер" style="ellipse;shape=cloud;whiteSpace=wrap;html=1;movable=0;resizable=0;rotatable=0;deletable=0;editable=0;locked=1;connectable=0;" parent="1" vertex="1">
          <mxGeometry x="512.97" y="265" width="160" height="80" as="geometry" />
        </mxCell>
        <mxCell id="nIQTlwYZVcQ3aSd5fRFl-9" value="" style="endArrow=none;html=1;rounded=0;movable=1;resizable=1;rotatable=1;deletable=1;editable=1;locked=0;connectable=1;" parent="1" edge="1">
          <mxGeometry width="50" height="50" relative="1" as="geometry">
            <mxPoint x="699" y="370" as="sourcePoint" />
            <mxPoint x="650" y="327" as="targetPoint" />
          </mxGeometry>
        </mxCell>
        <mxCell id="nIQTlwYZVcQ3aSd5fRFl-10" value="" style="endArrow=none;html=1;rounded=0;movable=0;resizable=0;rotatable=0;deletable=0;editable=0;locked=1;connectable=0;entryX=0.01;entryY=0.98;entryDx=0;entryDy=0;entryPerimeter=0;" parent="1" target="nIQTlwYZVcQ3aSd5fRFl-13" edge="1">
          <mxGeometry width="50" height="50" relative="1" as="geometry">
            <mxPoint x="613" y="469" as="sourcePoint" />
            <mxPoint x="677" y="401" as="targetPoint" />
          </mxGeometry>
        </mxCell>
        <mxCell id="nIQTlwYZVcQ3aSd5fRFl-13" value="" style="sketch=0;aspect=fixed;pointerEvents=1;shadow=0;dashed=0;html=1;strokeColor=none;labelPosition=center;verticalLabelPosition=bottom;verticalAlign=top;align=center;fillColor=#00188D;shape=mxgraph.mscae.enterprise.device;movable=0;resizable=0;rotatable=0;deletable=0;editable=0;locked=1;connectable=0;" parent="1" vertex="1">
          <mxGeometry x="695" y="360" width="84.62" height="44" as="geometry" />
        </mxCell>
        <mxCell id="nIQTlwYZVcQ3aSd5fRFl-14" value="" style="endArrow=none;html=1;rounded=0;movable=1;resizable=1;rotatable=1;deletable=1;editable=1;locked=0;connectable=1;" parent="1" edge="1">
          <mxGeometry width="50" height="50" relative="1" as="geometry">
            <mxPoint x="688" y="494" as="sourcePoint" />
            <mxPoint x="715" y="404" as="targetPoint" />
          </mxGeometry>
        </mxCell>
        <mxCell id="nIQTlwYZVcQ3aSd5fRFl-15" value="" style="endArrow=none;html=1;rounded=0;movable=0;resizable=0;rotatable=0;deletable=0;editable=0;locked=1;connectable=0;exitX=-0.02;exitY=0.109;exitDx=0;exitDy=0;exitPerimeter=0;" parent="1" source="nIQTlwYZVcQ3aSd5fRFl-2" edge="1">
          <mxGeometry width="50" height="50" relative="1" as="geometry">
            <mxPoint x="919" y="506" as="sourcePoint" />
            <mxPoint x="756" y="392" as="targetPoint" />
          </mxGeometry>
        </mxCell>
        <mxCell id="nIQTlwYZVcQ3aSd5fRFl-16" value="" style="shape=image;verticalLabelPosition=bottom;labelBackgroundColor=default;verticalAlign=top;aspect=fixed;imageAspect=0;image=https://pritunl.com/img/pritunl_onelogin.png;movable=0;resizable=0;rotatable=0;deletable=0;editable=0;locked=1;connectable=0;" parent="1" vertex="1">
          <mxGeometry x="773" y="573" width="78" height="30" as="geometry" />
        </mxCell>
        <mxCell id="nIQTlwYZVcQ3aSd5fRFl-18" value="" style="verticalLabelPosition=bottom;sketch=0;aspect=fixed;html=1;verticalAlign=top;strokeColor=none;align=center;outlineConnect=0;shape=mxgraph.citrix.switch;movable=0;resizable=0;rotatable=0;deletable=0;editable=0;locked=1;connectable=0;" parent="1" vertex="1">
          <mxGeometry x="932" y="531.5" width="92" height="41.5" as="geometry" />
        </mxCell>
        <mxCell id="nIQTlwYZVcQ3aSd5fRFl-19" value="" style="endArrow=none;html=1;rounded=0;" parent="1" edge="1">
          <mxGeometry width="50" height="50" relative="1" as="geometry">
            <mxPoint x="948" y="539" as="sourcePoint" />
            <mxPoint x="776" y="397" as="targetPoint" />
          </mxGeometry>
        </mxCell>
        <mxCell id="nIQTlwYZVcQ3aSd5fRFl-20" value="" style="endArrow=none;html=1;rounded=0;" parent="1" edge="1">
          <mxGeometry width="50" height="50" relative="1" as="geometry">
            <mxPoint x="798" y="493" as="sourcePoint" />
            <mxPoint x="770" y="401" as="targetPoint" />
          </mxGeometry>
        </mxCell>
        <mxCell id="nIQTlwYZVcQ3aSd5fRFl-21" value="" style="sketch=0;aspect=fixed;pointerEvents=1;shadow=0;dashed=0;html=1;strokeColor=none;labelPosition=center;verticalLabelPosition=bottom;verticalAlign=top;align=center;fillColor=#00188D;shape=mxgraph.mscae.enterprise.workstation_client;movable=0;resizable=0;rotatable=0;deletable=0;editable=0;locked=1;connectable=0;" parent="1" vertex="1">
          <mxGeometry x="895" y="647" width="50" height="50" as="geometry" />
        </mxCell>
        <mxCell id="nIQTlwYZVcQ3aSd5fRFl-22" value="" style="sketch=0;aspect=fixed;pointerEvents=1;shadow=0;dashed=0;html=1;strokeColor=none;labelPosition=center;verticalLabelPosition=bottom;verticalAlign=top;align=center;fillColor=#00188D;shape=mxgraph.mscae.enterprise.workstation_client;movable=0;resizable=0;rotatable=0;deletable=0;editable=0;locked=1;connectable=0;" parent="1" vertex="1">
          <mxGeometry x="969" y="661" width="50" height="50" as="geometry" />
        </mxCell>
        <mxCell id="nIQTlwYZVcQ3aSd5fRFl-23" value="" style="sketch=0;aspect=fixed;pointerEvents=1;shadow=0;dashed=0;html=1;strokeColor=none;labelPosition=center;verticalLabelPosition=bottom;verticalAlign=top;align=center;fillColor=#00188D;shape=mxgraph.mscae.enterprise.workstation_client;movable=0;resizable=0;rotatable=0;deletable=0;editable=0;locked=1;connectable=0;" parent="1" vertex="1">
          <mxGeometry x="912" y="716" width="50" height="50" as="geometry" />
        </mxCell>
        <mxCell id="nIQTlwYZVcQ3aSd5fRFl-24" value="" style="sketch=0;aspect=fixed;pointerEvents=1;shadow=0;dashed=0;html=1;strokeColor=none;labelPosition=center;verticalLabelPosition=bottom;verticalAlign=top;align=center;fillColor=#00188D;shape=mxgraph.mscae.enterprise.workstation_client;movable=0;resizable=0;rotatable=0;deletable=0;editable=0;locked=1;connectable=0;" parent="1" vertex="1">
          <mxGeometry x="991" y="729" width="50" height="50" as="geometry" />
        </mxCell>
        <mxCell id="nIQTlwYZVcQ3aSd5fRFl-25" value="" style="sketch=0;aspect=fixed;pointerEvents=1;shadow=0;dashed=0;html=1;strokeColor=none;labelPosition=center;verticalLabelPosition=bottom;verticalAlign=top;align=center;fillColor=#00188D;shape=mxgraph.mscae.enterprise.workstation_client;movable=0;resizable=0;rotatable=0;deletable=0;editable=0;locked=1;connectable=0;" parent="1" vertex="1">
          <mxGeometry x="910" y="779" width="50" height="50" as="geometry" />
        </mxCell>
        <mxCell id="nIQTlwYZVcQ3aSd5fRFl-26" value="" style="sketch=0;aspect=fixed;pointerEvents=1;shadow=0;dashed=0;html=1;strokeColor=none;labelPosition=center;verticalLabelPosition=bottom;verticalAlign=top;align=center;fillColor=#00188D;shape=mxgraph.mscae.enterprise.workstation_client;movable=0;resizable=0;rotatable=0;deletable=0;editable=0;locked=1;connectable=0;" parent="1" vertex="1">
          <mxGeometry x="1098" y="650" width="50" height="50" as="geometry" />
        </mxCell>
        <mxCell id="nIQTlwYZVcQ3aSd5fRFl-27" value="" style="sketch=0;aspect=fixed;pointerEvents=1;shadow=0;dashed=0;html=1;strokeColor=none;labelPosition=center;verticalLabelPosition=bottom;verticalAlign=top;align=center;fillColor=#00188D;shape=mxgraph.mscae.enterprise.workstation_client;movable=0;resizable=0;rotatable=0;deletable=0;editable=0;locked=1;connectable=0;" parent="1" vertex="1">
          <mxGeometry x="1172" y="664" width="50" height="50" as="geometry" />
        </mxCell>
        <mxCell id="nIQTlwYZVcQ3aSd5fRFl-28" value="" style="sketch=0;aspect=fixed;pointerEvents=1;shadow=0;dashed=0;html=1;strokeColor=none;labelPosition=center;verticalLabelPosition=bottom;verticalAlign=top;align=center;fillColor=#00188D;shape=mxgraph.mscae.enterprise.workstation_client;movable=0;resizable=0;rotatable=0;deletable=0;editable=0;locked=1;connectable=0;" parent="1" vertex="1">
          <mxGeometry x="1115" y="719" width="50" height="50" as="geometry" />
        </mxCell>
        <mxCell id="nIQTlwYZVcQ3aSd5fRFl-29" value="" style="sketch=0;aspect=fixed;pointerEvents=1;shadow=0;dashed=0;html=1;strokeColor=none;labelPosition=center;verticalLabelPosition=bottom;verticalAlign=top;align=center;fillColor=#00188D;shape=mxgraph.mscae.enterprise.workstation_client;movable=0;resizable=0;rotatable=0;deletable=0;editable=0;locked=1;connectable=0;" parent="1" vertex="1">
          <mxGeometry x="1194" y="732" width="50" height="50" as="geometry" />
        </mxCell>
        <mxCell id="nIQTlwYZVcQ3aSd5fRFl-30" value="" style="sketch=0;aspect=fixed;pointerEvents=1;shadow=0;dashed=0;html=1;strokeColor=none;labelPosition=center;verticalLabelPosition=bottom;verticalAlign=top;align=center;fillColor=#00188D;shape=mxgraph.mscae.enterprise.workstation_client;movable=0;resizable=0;rotatable=0;deletable=0;editable=0;locked=1;connectable=0;" parent="1" vertex="1">
          <mxGeometry x="1113" y="782" width="50" height="50" as="geometry" />
        </mxCell>
        <mxCell id="nIQTlwYZVcQ3aSd5fRFl-31" value="" style="sketch=0;aspect=fixed;pointerEvents=1;shadow=0;dashed=0;html=1;strokeColor=none;labelPosition=center;verticalLabelPosition=bottom;verticalAlign=top;align=center;fillColor=#00188D;shape=mxgraph.mscae.enterprise.workstation_client;movable=0;resizable=0;rotatable=0;deletable=0;editable=0;locked=1;connectable=0;" parent="1" vertex="1">
          <mxGeometry x="1138" y="427" width="50" height="50" as="geometry" />
        </mxCell>
        <mxCell id="nIQTlwYZVcQ3aSd5fRFl-32" value="" style="sketch=0;aspect=fixed;pointerEvents=1;shadow=0;dashed=0;html=1;strokeColor=none;labelPosition=center;verticalLabelPosition=bottom;verticalAlign=top;align=center;fillColor=#00188D;shape=mxgraph.mscae.enterprise.workstation_client;movable=0;resizable=0;rotatable=0;deletable=0;editable=0;locked=1;connectable=0;" parent="1" vertex="1">
          <mxGeometry x="1212" y="441" width="50" height="50" as="geometry" />
        </mxCell>
        <mxCell id="nIQTlwYZVcQ3aSd5fRFl-33" value="" style="sketch=0;aspect=fixed;pointerEvents=1;shadow=0;dashed=0;html=1;strokeColor=none;labelPosition=center;verticalLabelPosition=bottom;verticalAlign=top;align=center;fillColor=#00188D;shape=mxgraph.mscae.enterprise.workstation_client;movable=0;resizable=0;rotatable=0;deletable=0;editable=0;locked=1;connectable=0;" parent="1" vertex="1">
          <mxGeometry x="1155" y="496" width="50" height="50" as="geometry" />
        </mxCell>
        <mxCell id="nIQTlwYZVcQ3aSd5fRFl-34" value="" style="sketch=0;aspect=fixed;pointerEvents=1;shadow=0;dashed=0;html=1;strokeColor=none;labelPosition=center;verticalLabelPosition=bottom;verticalAlign=top;align=center;fillColor=#00188D;shape=mxgraph.mscae.enterprise.workstation_client;movable=0;resizable=0;rotatable=0;deletable=0;editable=0;locked=1;connectable=0;" parent="1" vertex="1">
          <mxGeometry x="1234" y="509" width="50" height="50" as="geometry" />
        </mxCell>
        <mxCell id="nIQTlwYZVcQ3aSd5fRFl-35" value="" style="sketch=0;aspect=fixed;pointerEvents=1;shadow=0;dashed=0;html=1;strokeColor=none;labelPosition=center;verticalLabelPosition=bottom;verticalAlign=top;align=center;fillColor=#00188D;shape=mxgraph.mscae.enterprise.workstation_client;movable=0;resizable=0;rotatable=0;deletable=0;editable=0;locked=1;connectable=0;" parent="1" vertex="1">
          <mxGeometry x="1153" y="559" width="50" height="50" as="geometry" />
        </mxCell>
        <mxCell id="nIQTlwYZVcQ3aSd5fRFl-36" value="" style="endArrow=none;html=1;rounded=0;movable=0;resizable=0;rotatable=0;deletable=0;editable=0;locked=1;connectable=0;" parent="1" edge="1">
          <mxGeometry width="50" height="50" relative="1" as="geometry">
            <mxPoint x="919" y="664" as="sourcePoint" />
            <mxPoint x="937" y="561" as="targetPoint" />
          </mxGeometry>
        </mxCell>
        <mxCell id="nIQTlwYZVcQ3aSd5fRFl-37" value="" style="endArrow=none;html=1;rounded=0;movable=0;resizable=0;rotatable=0;deletable=0;editable=0;locked=1;connectable=0;" parent="1" edge="1">
          <mxGeometry width="50" height="50" relative="1" as="geometry">
            <mxPoint x="942" y="735" as="sourcePoint" />
            <mxPoint x="949" y="565" as="targetPoint" />
          </mxGeometry>
        </mxCell>
        <mxCell id="nIQTlwYZVcQ3aSd5fRFl-38" value="" style="endArrow=none;html=1;rounded=0;" parent="1" edge="1">
          <mxGeometry width="50" height="50" relative="1" as="geometry">
            <mxPoint x="973" y="669" as="sourcePoint" />
            <mxPoint x="965" y="570" as="targetPoint" />
          </mxGeometry>
        </mxCell>
        <mxCell id="nIQTlwYZVcQ3aSd5fRFl-39" value="" style="endArrow=none;html=1;rounded=0;" parent="1" edge="1">
          <mxGeometry width="50" height="50" relative="1" as="geometry">
            <mxPoint x="960" y="808.5" as="sourcePoint" />
            <mxPoint x="957" y="568" as="targetPoint" />
          </mxGeometry>
        </mxCell>
        <mxCell id="nIQTlwYZVcQ3aSd5fRFl-40" value="" style="endArrow=none;html=1;rounded=0;movable=0;resizable=0;rotatable=0;deletable=0;editable=0;locked=1;connectable=0;" parent="1" edge="1">
          <mxGeometry width="50" height="50" relative="1" as="geometry">
            <mxPoint x="1023" y="750" as="sourcePoint" />
            <mxPoint x="975" y="571" as="targetPoint" />
          </mxGeometry>
        </mxCell>
        <mxCell id="nIQTlwYZVcQ3aSd5fRFl-41" value="" style="endArrow=none;html=1;rounded=0;movable=0;resizable=0;rotatable=0;deletable=0;editable=0;locked=1;connectable=0;" parent="1" edge="1">
          <mxGeometry width="50" height="50" relative="1" as="geometry">
            <mxPoint x="984" y="530" as="sourcePoint" />
            <mxPoint x="1138" y="435" as="targetPoint" />
          </mxGeometry>
        </mxCell>
        <mxCell id="nIQTlwYZVcQ3aSd5fRFl-42" value="" style="endArrow=none;html=1;rounded=0;movable=0;resizable=0;rotatable=0;deletable=0;editable=0;locked=1;connectable=0;" parent="1" edge="1">
          <mxGeometry width="50" height="50" relative="1" as="geometry">
            <mxPoint x="989" y="533" as="sourcePoint" />
            <mxPoint x="1212" y="463" as="targetPoint" />
          </mxGeometry>
        </mxCell>
        <mxCell id="nIQTlwYZVcQ3aSd5fRFl-43" value="" style="endArrow=none;html=1;rounded=0;movable=0;resizable=0;rotatable=0;deletable=0;editable=0;locked=1;connectable=0;" parent="1" edge="1">
          <mxGeometry width="50" height="50" relative="1" as="geometry">
            <mxPoint x="1019" y="543" as="sourcePoint" />
            <mxPoint x="1234" y="547" as="targetPoint" />
          </mxGeometry>
        </mxCell>
        <mxCell id="nIQTlwYZVcQ3aSd5fRFl-44" value="" style="endArrow=none;html=1;rounded=0;movable=0;resizable=0;rotatable=0;deletable=0;editable=0;locked=1;connectable=0;" parent="1" edge="1">
          <mxGeometry width="50" height="50" relative="1" as="geometry">
            <mxPoint x="1004" y="537" as="sourcePoint" />
            <mxPoint x="1153" y="509" as="targetPoint" />
          </mxGeometry>
        </mxCell>
        <mxCell id="nIQTlwYZVcQ3aSd5fRFl-45" value="" style="endArrow=none;html=1;rounded=0;movable=0;resizable=0;rotatable=0;deletable=0;editable=0;locked=1;connectable=0;" parent="1" edge="1">
          <mxGeometry width="50" height="50" relative="1" as="geometry">
            <mxPoint x="1024" y="548" as="sourcePoint" />
            <mxPoint x="1153" y="561" as="targetPoint" />
          </mxGeometry>
        </mxCell>
        <mxCell id="nIQTlwYZVcQ3aSd5fRFl-46" value="" style="endArrow=none;html=1;rounded=0;movable=0;resizable=0;rotatable=0;deletable=0;editable=0;locked=1;connectable=0;" parent="1" edge="1">
          <mxGeometry width="50" height="50" relative="1" as="geometry">
            <mxPoint x="1019" y="562" as="sourcePoint" />
            <mxPoint x="1103" y="650" as="targetPoint" />
          </mxGeometry>
        </mxCell>
        <mxCell id="nIQTlwYZVcQ3aSd5fRFl-47" value="" style="endArrow=none;html=1;rounded=0;movable=0;resizable=0;rotatable=0;deletable=0;editable=0;locked=1;connectable=0;" parent="1" edge="1">
          <mxGeometry width="50" height="50" relative="1" as="geometry">
            <mxPoint x="1023" y="560" as="sourcePoint" />
            <mxPoint x="1172" y="664" as="targetPoint" />
          </mxGeometry>
        </mxCell>
        <mxCell id="nIQTlwYZVcQ3aSd5fRFl-48" value="" style="endArrow=none;html=1;rounded=0;movable=0;resizable=0;rotatable=0;deletable=0;editable=0;locked=1;connectable=0;" parent="1" edge="1">
          <mxGeometry width="50" height="50" relative="1" as="geometry">
            <mxPoint x="1006" y="566" as="sourcePoint" />
            <mxPoint x="1115" y="743" as="targetPoint" />
          </mxGeometry>
        </mxCell>
        <mxCell id="nIQTlwYZVcQ3aSd5fRFl-49" value="" style="endArrow=none;html=1;rounded=0;movable=0;resizable=0;rotatable=0;deletable=0;editable=0;locked=1;connectable=0;" parent="1" edge="1">
          <mxGeometry width="50" height="50" relative="1" as="geometry">
            <mxPoint x="1116" y="803" as="sourcePoint" />
            <mxPoint x="999" y="565" as="targetPoint" />
          </mxGeometry>
        </mxCell>
        <mxCell id="nIQTlwYZVcQ3aSd5fRFl-50" value="" style="endArrow=none;html=1;rounded=0;movable=0;resizable=0;rotatable=0;deletable=0;editable=0;locked=1;connectable=0;" parent="1" edge="1">
          <mxGeometry width="50" height="50" relative="1" as="geometry">
            <mxPoint x="1011" y="563" as="sourcePoint" />
            <mxPoint x="1194" y="742" as="targetPoint" />
          </mxGeometry>
        </mxCell>
        <mxCell id="nIQTlwYZVcQ3aSd5fRFl-55" value="" style="endArrow=none;html=1;rounded=0;movable=0;resizable=0;rotatable=0;deletable=0;editable=0;locked=1;connectable=0;" parent="1" edge="1">
          <mxGeometry width="50" height="50" relative="1" as="geometry">
            <mxPoint x="973" y="667" as="sourcePoint" />
            <mxPoint x="965" y="568" as="targetPoint" />
          </mxGeometry>
        </mxCell>
        <mxCell id="nIQTlwYZVcQ3aSd5fRFl-56" value="" style="endArrow=none;html=1;rounded=0;movable=0;resizable=0;rotatable=0;deletable=0;editable=0;locked=1;connectable=0;" parent="1" edge="1">
          <mxGeometry width="50" height="50" relative="1" as="geometry">
            <mxPoint x="960" y="806.5" as="sourcePoint" />
            <mxPoint x="957" y="566" as="targetPoint" />
          </mxGeometry>
        </mxCell>
        <mxCell id="nIQTlwYZVcQ3aSd5fRFl-57" value="router" style="text;html=1;align=center;verticalAlign=middle;resizable=0;points=[];autosize=1;strokeColor=none;fillColor=none;movable=0;rotatable=0;deletable=0;editable=0;locked=1;connectable=0;" parent="1" vertex="1">
          <mxGeometry x="712.81" y="334" width="49" height="26" as="geometry" />
        </mxCell>
        <mxCell id="nIQTlwYZVcQ3aSd5fRFl-58" value="Windows Server 2016&lt;br&gt;srv-Domain&lt;br&gt;Controller" style="text;html=1;align=center;verticalAlign=middle;resizable=0;points=[];autosize=1;strokeColor=none;fillColor=none;" parent="1" vertex="1">
          <mxGeometry x="512.97" y="504" width="135" height="55" as="geometry" />
        </mxCell>
        <mxCell id="nIQTlwYZVcQ3aSd5fRFl-60" value="Windows Server 2016&lt;br&gt;srv-terminal" style="text;html=1;align=center;verticalAlign=middle;resizable=0;points=[];autosize=1;strokeColor=none;fillColor=none;" parent="1" vertex="1">
          <mxGeometry x="620.97" y="563.5" width="135" height="41" as="geometry" />
        </mxCell>
        <mxCell id="nIQTlwYZVcQ3aSd5fRFl-61" value="Debian 9&lt;br&gt;srv-OpenVPN&lt;br&gt;Pritunl" style="text;html=1;align=center;verticalAlign=middle;resizable=0;points=[];autosize=1;strokeColor=none;fillColor=none;" parent="1" vertex="1">
          <mxGeometry x="761" y="592" width="92" height="55" as="geometry" />
        </mxCell>
        <mxCell id="nIQTlwYZVcQ3aSd5fRFl-62" value="switch" style="text;html=1;align=center;verticalAlign=middle;resizable=0;points=[];autosize=1;strokeColor=none;fillColor=none;movable=0;rotatable=0;deletable=0;editable=0;locked=1;connectable=0;" parent="1" vertex="1">
          <mxGeometry x="938" y="510.44" width="51" height="26" as="geometry" />
        </mxCell>
        <mxCell id="nIQTlwYZVcQ3aSd5fRFl-66" value="10.2.0.0/24" style="text;html=1;align=center;verticalAlign=middle;resizable=0;points=[];autosize=1;strokeColor=none;fillColor=none;fontSize=11;fontFamily=Helvetica;fontColor=default;" parent="1" vertex="1">
          <mxGeometry x="633" y="439.5" width="73" height="25" as="geometry" />
        </mxCell>
        <mxCell id="nIQTlwYZVcQ3aSd5fRFl-68" value=".2" style="text;html=1;align=center;verticalAlign=middle;resizable=0;points=[];autosize=1;strokeColor=none;fillColor=none;fontSize=11;fontFamily=Helvetica;fontColor=default;" parent="1" vertex="1">
          <mxGeometry x="597" y="447.06" width="27" height="25" as="geometry" />
        </mxCell>
        <mxCell id="nIQTlwYZVcQ3aSd5fRFl-69" value=".1" style="text;html=1;align=center;verticalAlign=middle;resizable=0;points=[];autosize=1;strokeColor=none;fillColor=none;fontSize=11;fontFamily=Helvetica;fontColor=default;" parent="1" vertex="1">
          <mxGeometry x="684" y="399" width="27" height="25" as="geometry" />
        </mxCell>
        <mxCell id="nIQTlwYZVcQ3aSd5fRFl-71" value="&lt;font style=&quot;font-size: 9px;&quot;&gt;10.100.100.0/22&lt;/font&gt;" style="text;html=1;align=center;verticalAlign=middle;resizable=0;points=[];autosize=1;strokeColor=none;fillColor=none;fontSize=11;fontFamily=Helvetica;fontColor=default;rotation=75;movable=0;rotatable=0;deletable=0;editable=0;locked=1;connectable=0;" parent="1" vertex="1">
          <mxGeometry x="716.9399999999999" y="446" width="83" height="25" as="geometry" />
        </mxCell>
        <mxCell id="nIQTlwYZVcQ3aSd5fRFl-73" value="8.8.8.8" style="text;html=1;align=center;verticalAlign=middle;resizable=0;points=[];autosize=1;strokeColor=none;fillColor=none;fontSize=11;fontFamily=Helvetica;fontColor=default;" parent="1" vertex="1">
          <mxGeometry x="604" y="257" width="52" height="25" as="geometry" />
        </mxCell>
        <mxCell id="nIQTlwYZVcQ3aSd5fRFl-74" value=".1" style="text;html=1;align=center;verticalAlign=middle;resizable=0;points=[];autosize=1;strokeColor=none;fillColor=none;fontSize=11;fontFamily=Helvetica;fontColor=default;" parent="1" vertex="1">
          <mxGeometry x="734" y="397" width="27" height="25" as="geometry" />
        </mxCell>
        <mxCell id="nIQTlwYZVcQ3aSd5fRFl-75" value="NAT&lt;br&gt;10.1.0.0/22&lt;br&gt;443, 1194" style="text;html=1;align=center;verticalAlign=middle;resizable=0;points=[];autosize=1;strokeColor=none;fillColor=none;fontSize=11;fontFamily=Helvetica;fontColor=default;rotation=9;" parent="1" vertex="1">
          <mxGeometry x="778" y="236" width="73" height="52" as="geometry" />
        </mxCell>
        <mxCell id="nIQTlwYZVcQ3aSd5fRFl-76" value="IT1" style="text;html=1;align=center;verticalAlign=middle;resizable=0;points=[];autosize=1;strokeColor=none;fillColor=none;fontSize=11;fontFamily=Helvetica;fontColor=default;" parent="1" vertex="1">
          <mxGeometry x="907" y="691" width="34" height="25" as="geometry" />
        </mxCell>
        <mxCell id="nIQTlwYZVcQ3aSd5fRFl-77" value="IT5" style="text;html=1;align=center;verticalAlign=middle;resizable=0;points=[];autosize=1;strokeColor=none;fillColor=none;fontSize=11;fontFamily=Helvetica;fontColor=default;shadow=0;" parent="1" vertex="1">
          <mxGeometry x="923" y="826" width="34" height="25" as="geometry" />
        </mxCell>
        <mxCell id="nIQTlwYZVcQ3aSd5fRFl-78" value="IT3" style="text;html=1;align=center;verticalAlign=middle;resizable=0;points=[];autosize=1;strokeColor=none;fillColor=none;fontSize=11;fontFamily=Helvetica;fontColor=default;" parent="1" vertex="1">
          <mxGeometry x="926" y="762" width="34" height="25" as="geometry" />
        </mxCell>
        <mxCell id="nIQTlwYZVcQ3aSd5fRFl-79" value="IT2" style="text;html=1;align=center;verticalAlign=middle;resizable=0;points=[];autosize=1;strokeColor=none;fillColor=none;fontSize=11;fontFamily=Helvetica;fontColor=default;" parent="1" vertex="1">
          <mxGeometry x="982" y="707" width="34" height="25" as="geometry" />
        </mxCell>
        <mxCell id="nIQTlwYZVcQ3aSd5fRFl-80" value="IT4" style="text;html=1;align=center;verticalAlign=middle;resizable=0;points=[];autosize=1;strokeColor=none;fillColor=none;fontSize=11;fontFamily=Helvetica;fontColor=default;" parent="1" vertex="1">
          <mxGeometry x="996" y="779" width="34" height="25" as="geometry" />
        </mxCell>
        <mxCell id="nIQTlwYZVcQ3aSd5fRFl-81" value="BUH2" style="text;html=1;align=center;verticalAlign=middle;resizable=0;points=[];autosize=1;strokeColor=none;fillColor=none;fontSize=11;fontFamily=Helvetica;fontColor=default;" parent="1" vertex="1">
          <mxGeometry x="1178" y="707" width="47" height="25" as="geometry" />
        </mxCell>
        <mxCell id="nIQTlwYZVcQ3aSd5fRFl-82" value="BUH1" style="text;html=1;align=center;verticalAlign=middle;resizable=0;points=[];autosize=1;strokeColor=none;fillColor=none;fontSize=11;fontFamily=Helvetica;fontColor=default;" parent="1" vertex="1">
          <mxGeometry x="1103" y="694" width="47" height="25" as="geometry" />
        </mxCell>
        <mxCell id="nIQTlwYZVcQ3aSd5fRFl-83" value="BUH4" style="text;html=1;align=center;verticalAlign=middle;resizable=0;points=[];autosize=1;strokeColor=none;fillColor=none;fontSize=11;fontFamily=Helvetica;fontColor=default;" parent="1" vertex="1">
          <mxGeometry x="1192" y="779" width="47" height="25" as="geometry" />
        </mxCell>
        <mxCell id="nIQTlwYZVcQ3aSd5fRFl-84" value="BUH3" style="text;html=1;align=center;verticalAlign=middle;resizable=0;points=[];autosize=1;strokeColor=none;fillColor=none;fontSize=11;fontFamily=Helvetica;fontColor=default;" parent="1" vertex="1">
          <mxGeometry x="1122" y="762" width="47" height="25" as="geometry" />
        </mxCell>
        <mxCell id="nIQTlwYZVcQ3aSd5fRFl-85" value="BUH5" style="text;html=1;align=center;verticalAlign=middle;resizable=0;points=[];autosize=1;strokeColor=none;fillColor=none;fontSize=11;fontFamily=Helvetica;fontColor=default;" parent="1" vertex="1">
          <mxGeometry x="1116.5" y="829" width="47" height="25" as="geometry" />
        </mxCell>
        <mxCell id="nIQTlwYZVcQ3aSd5fRFl-86" value="HR5" style="text;html=1;align=center;verticalAlign=middle;resizable=0;points=[];autosize=1;strokeColor=none;fillColor=none;fontSize=11;fontFamily=Helvetica;fontColor=default;" parent="1" vertex="1">
          <mxGeometry x="1165" y="603" width="40" height="25" as="geometry" />
        </mxCell>
        <mxCell id="nIQTlwYZVcQ3aSd5fRFl-87" value="HR1&lt;br&gt;" style="text;html=1;align=center;verticalAlign=middle;resizable=0;points=[];autosize=1;strokeColor=none;fillColor=none;fontSize=11;fontFamily=Helvetica;fontColor=default;" parent="1" vertex="1">
          <mxGeometry x="1153" y="471" width="40" height="25" as="geometry" />
        </mxCell>
        <mxCell id="nIQTlwYZVcQ3aSd5fRFl-88" value="HR4" style="text;html=1;align=center;verticalAlign=middle;resizable=0;points=[];autosize=1;strokeColor=none;fillColor=none;fontSize=11;fontFamily=Helvetica;fontColor=default;" parent="1" vertex="1">
          <mxGeometry x="1239" y="555" width="40" height="25" as="geometry" />
        </mxCell>
        <mxCell id="nIQTlwYZVcQ3aSd5fRFl-89" value="HR3" style="text;html=1;align=center;verticalAlign=middle;resizable=0;points=[];autosize=1;strokeColor=none;fillColor=none;fontSize=11;fontFamily=Helvetica;fontColor=default;" parent="1" vertex="1">
          <mxGeometry x="1169" y="542.22" width="40" height="25" as="geometry" />
        </mxCell>
        <mxCell id="nIQTlwYZVcQ3aSd5fRFl-90" value="HR2" style="text;html=1;align=center;verticalAlign=middle;resizable=0;points=[];autosize=1;strokeColor=none;fillColor=none;fontSize=11;fontFamily=Helvetica;fontColor=default;" parent="1" vertex="1">
          <mxGeometry x="1222" y="485.44" width="40" height="25" as="geometry" />
        </mxCell>
        <mxCell id="nIQTlwYZVcQ3aSd5fRFl-91" value="vlan it (10) - 10.3.10.0/22&lt;br&gt;vlan buh (20)&amp;nbsp; - 10.3.20.0/22&lt;br&gt;vlan hr (30) - 10.3.30.0/22" style="text;html=1;align=center;verticalAlign=middle;resizable=0;points=[];autosize=1;strokeColor=none;fillColor=none;fontSize=11;fontFamily=Helvetica;fontColor=default;" parent="1" vertex="1">
          <mxGeometry x="842" y="412.5" width="156" height="52" as="geometry" />
        </mxCell>
        <mxCell id="nIQTlwYZVcQ3aSd5fRFl-92" value="10.1" style="text;html=1;align=center;verticalAlign=middle;resizable=0;points=[];autosize=1;strokeColor=none;fillColor=none;fontSize=11;fontFamily=Helvetica;rotation=0;fontStyle=0" parent="1" vertex="1">
          <mxGeometry x="887" y="625" width="39" height="25" as="geometry" />
        </mxCell>
        <mxCell id="nIQTlwYZVcQ3aSd5fRFl-93" value="10.2" style="text;html=1;align=center;verticalAlign=middle;resizable=0;points=[];autosize=1;strokeColor=none;fillColor=none;fontSize=11;fontFamily=Helvetica;fontColor=default;rotation=0;" parent="1" vertex="1">
          <mxGeometry x="962" y="639" width="39" height="25" as="geometry" />
        </mxCell>
        <mxCell id="nIQTlwYZVcQ3aSd5fRFl-94" value="10.3" style="text;html=1;align=center;verticalAlign=middle;resizable=0;points=[];autosize=1;strokeColor=none;fillColor=none;fontSize=11;fontFamily=Helvetica;fontColor=default;rotation=-85;" parent="1" vertex="1">
          <mxGeometry x="930" y="711" width="39" height="25" as="geometry" />
        </mxCell>
        <mxCell id="nIQTlwYZVcQ3aSd5fRFl-95" value="10.4" style="text;html=1;align=center;verticalAlign=middle;resizable=0;points=[];autosize=1;strokeColor=none;fillColor=none;fontSize=11;fontFamily=Helvetica;fontColor=default;rotation=0;" parent="1" vertex="1">
          <mxGeometry x="1012" y="726" width="39" height="25" as="geometry" />
        </mxCell>
        <mxCell id="nIQTlwYZVcQ3aSd5fRFl-96" value="10.5" style="text;html=1;align=center;verticalAlign=middle;resizable=0;points=[];autosize=1;strokeColor=none;fillColor=none;fontSize=11;fontFamily=Helvetica;fontColor=default;rotation=0;" parent="1" vertex="1">
          <mxGeometry x="952" y="779" width="39" height="25" as="geometry" />
        </mxCell>
        <mxCell id="nIQTlwYZVcQ3aSd5fRFl-97" value="20.1" style="text;html=1;align=center;verticalAlign=middle;resizable=0;points=[];autosize=1;strokeColor=none;fillColor=none;fontSize=11;fontFamily=Helvetica;fontColor=default;" parent="1" vertex="1">
          <mxGeometry x="1090" y="628" width="39" height="25" as="geometry" />
        </mxCell>
        <mxCell id="nIQTlwYZVcQ3aSd5fRFl-98" value="20.2" style="text;html=1;align=center;verticalAlign=middle;resizable=0;points=[];autosize=1;strokeColor=none;fillColor=none;fontSize=11;fontFamily=Helvetica;fontColor=default;" parent="1" vertex="1">
          <mxGeometry x="1160.5" y="642" width="39" height="25" as="geometry" />
        </mxCell>
        <mxCell id="nIQTlwYZVcQ3aSd5fRFl-99" value="20.3" style="text;html=1;align=center;verticalAlign=middle;resizable=0;points=[];autosize=1;strokeColor=none;fillColor=none;fontSize=11;fontFamily=Helvetica;fontColor=default;" parent="1" vertex="1">
          <mxGeometry x="1076" y="719" width="39" height="25" as="geometry" />
        </mxCell>
        <mxCell id="nIQTlwYZVcQ3aSd5fRFl-100" value="20.4" style="text;html=1;align=center;verticalAlign=middle;resizable=0;points=[];autosize=1;strokeColor=none;fillColor=none;fontSize=11;fontFamily=Helvetica;fontColor=default;" parent="1" vertex="1">
          <mxGeometry x="1163" y="732" width="39" height="25" as="geometry" />
        </mxCell>
        <mxCell id="nIQTlwYZVcQ3aSd5fRFl-101" value="20.5" style="text;html=1;align=center;verticalAlign=middle;resizable=0;points=[];autosize=1;strokeColor=none;fillColor=none;fontSize=11;fontFamily=Helvetica;fontColor=default;" parent="1" vertex="1">
          <mxGeometry x="1077.5" y="785" width="39" height="25" as="geometry" />
        </mxCell>
        <mxCell id="nIQTlwYZVcQ3aSd5fRFl-102" value="30.1" style="text;html=1;align=center;verticalAlign=middle;resizable=0;points=[];autosize=1;strokeColor=none;fillColor=none;fontSize=11;fontFamily=Helvetica;fontColor=default;" parent="1" vertex="1">
          <mxGeometry x="1103.5" y="421" width="39" height="25" as="geometry" />
        </mxCell>
        <mxCell id="nIQTlwYZVcQ3aSd5fRFl-103" value="30.2" style="text;html=1;align=center;verticalAlign=middle;resizable=0;points=[];autosize=1;strokeColor=none;fillColor=none;fontSize=11;fontFamily=Helvetica;fontColor=default;" parent="1" vertex="1">
          <mxGeometry x="1182" y="444" width="39" height="25" as="geometry" />
        </mxCell>
        <mxCell id="nIQTlwYZVcQ3aSd5fRFl-104" value="30.3" style="text;html=1;align=center;verticalAlign=middle;resizable=0;points=[];autosize=1;strokeColor=none;fillColor=none;fontSize=11;fontFamily=Helvetica;fontColor=default;" parent="1" vertex="1">
          <mxGeometry x="1122" y="506.5" width="39" height="25" as="geometry" />
        </mxCell>
        <mxCell id="nIQTlwYZVcQ3aSd5fRFl-105" value="30.4" style="text;html=1;align=center;verticalAlign=middle;resizable=0;points=[];autosize=1;strokeColor=none;fillColor=none;fontSize=11;fontFamily=Helvetica;fontColor=default;" parent="1" vertex="1">
          <mxGeometry x="1200" y="525" width="39" height="25" as="geometry" />
        </mxCell>
        <mxCell id="nIQTlwYZVcQ3aSd5fRFl-106" value="30.5" style="text;html=1;align=center;verticalAlign=middle;resizable=0;points=[];autosize=1;strokeColor=none;fillColor=none;fontSize=11;fontFamily=Helvetica;fontColor=default;" parent="1" vertex="1">
          <mxGeometry x="1118.5" y="559" width="39" height="25" as="geometry" />
        </mxCell>
        <mxCell id="nIQTlwYZVcQ3aSd5fRFl-107" value="Отдел IT" style="text;html=1;align=center;verticalAlign=middle;resizable=0;points=[];autosize=1;strokeColor=default;fillColor=none;fontSize=11;fontFamily=Helvetica;fontColor=default;" parent="1" vertex="1">
          <mxGeometry x="829" y="762" width="63" height="25" as="geometry" />
        </mxCell>
        <mxCell id="nIQTlwYZVcQ3aSd5fRFl-108" value="Отдел Бухгалтерии" style="text;html=1;align=center;verticalAlign=middle;resizable=0;points=[];autosize=1;strokeColor=default;fillColor=none;fontSize=11;fontFamily=Helvetica;fontColor=default;" parent="1" vertex="1">
          <mxGeometry x="1172" y="804" width="117" height="25" as="geometry" />
        </mxCell>
        <mxCell id="nIQTlwYZVcQ3aSd5fRFl-109" value="Отдел HR" style="text;html=1;align=center;verticalAlign=middle;resizable=0;points=[];autosize=1;strokeColor=default;fillColor=none;fontSize=11;fontFamily=Helvetica;fontColor=default;" parent="1" vertex="1">
          <mxGeometry x="1215" y="592" width="69" height="25" as="geometry" />
        </mxCell>
        <mxCell id="nIQTlwYZVcQ3aSd5fRFl-110" value=".3" style="text;html=1;align=center;verticalAlign=middle;resizable=0;points=[];autosize=1;strokeColor=none;fillColor=none;fontSize=11;fontFamily=Helvetica;fontColor=default;" parent="1" vertex="1">
          <mxGeometry x="684" y="472.06" width="27" height="25" as="geometry" />
        </mxCell>
        <mxCell id="nIQTlwYZVcQ3aSd5fRFl-112" value="" style="endArrow=none;dashed=1;html=1;dashPattern=1 3;strokeWidth=2;rounded=0;labelBackgroundColor=default;strokeColor=default;fontFamily=Helvetica;fontSize=11;fontColor=default;shape=connector;edgeStyle=orthogonalEdgeStyle;curved=1;" parent="1" edge="1">
          <mxGeometry width="50" height="50" relative="1" as="geometry">
            <mxPoint x="772" y="407" as="sourcePoint" />
            <mxPoint x="660" y="296" as="targetPoint" />
            <Array as="points">
              <mxPoint x="861" y="407" />
              <mxPoint x="861" y="280" />
              <mxPoint x="661" y="280" />
              <mxPoint x="661" y="296" />
            </Array>
          </mxGeometry>
        </mxCell>
        <mxCell id="nIQTlwYZVcQ3aSd5fRFl-113" value=".4" style="text;html=1;align=center;verticalAlign=middle;resizable=0;points=[];autosize=1;strokeColor=none;fillColor=none;fontSize=11;fontFamily=Helvetica;fontColor=default;" parent="1" vertex="1">
          <mxGeometry x="790" y="472.06" width="27" height="25" as="geometry" />
        </mxCell>
      </root>
    </mxGraphModel>
  </diagram>
</mxfile>
